<svg xmlns="http://www.w3.org/2000/svg" width="80" height="31" viewBox="0 0 80 31" fill="none">
  <path d="M66.1006 10.2667C66.1589 10.1667 66.0978 10.0917 65.97 10.0917C65.3061 10.0917 64.4367 10.0944 63.7478 10.0944C63.5839 10.0944 63.4978 10.1139 63.42 10.2667C63.1645 10.7556 60.0561 15.4139 59.4784 16.3167C59.3811 16.4556 59.2617 16.4361 59.2478 16.2778C59.1895 15.7417 58.7256 15.1222 57.995 14.8278C57.4395 14.6028 56.8923 14.5611 56.3284 14.6361C55.3061 14.7722 54.395 15.3139 53.595 15.9194C52.3895 16.8361 51.3478 18.025 50.0034 18.9056C49.27 19.3833 48.2645 19.8 47.5922 19.1778C46.9839 18.6139 47.0534 17.3611 47.9839 16.3917C48.0811 16.2889 48.2006 16.375 48.1811 16.4667C48.0922 16.9056 48.2006 17.3417 48.5339 17.6472C48.9395 18.0111 49.52 18.0528 50.0173 17.8083C50.6034 17.5167 50.9478 16.9556 51.0506 16.3194C51.2061 15.3306 50.445 14.4583 49.4922 14.3889C48.7173 14.3333 47.9756 14.6028 47.2534 15.2C46.8923 15.5 46.6839 15.7222 46.3728 16.1694C46.2978 16.2778 46.1784 16.2889 46.1839 16.1278C46.22 14.8611 45.6978 14.15 44.6506 14.125C43.8395 14.1056 42.97 14.5472 42.295 15.0861C41.5534 15.6806 40.9061 16.4722 40.2117 17.2139C40.1256 17.3056 40.0506 17.3 40.0256 17.1222C40.0034 16.2833 39.795 15.4722 39.4061 14.8944C39.27 14.6944 38.9811 14.5944 38.7367 14.7306C38.6256 14.7917 38.2339 14.9722 37.9506 15.2C37.8089 15.3167 37.7561 15.4833 37.8172 15.7C38.1922 16.9528 38.1089 18.3778 37.6006 19.5806C37.1339 20.6833 36.2256 21.6778 35.1589 22.0139C34.4561 22.2361 33.7256 22.1278 33.2728 21.5056C32.6534 20.6472 32.9034 19.15 33.8284 17.9111C34.645 16.8194 35.8256 16.125 37.0034 15.6778C37.1422 15.625 37.17 15.5361 37.1311 15.4167C37.0672 15.2222 36.9645 14.9583 36.9228 14.8389C36.8145 14.5528 36.5117 14.5056 36.1423 14.5444C35.2867 14.6444 34.5145 14.9361 33.7506 15.3444C31.7534 16.4139 30.7534 18.4833 30.3145 19.5917C30.1034 20.125 29.9228 20.4556 29.6895 20.75C29.3756 21.1444 28.9784 21.5056 28.2561 22.1417C28.1895 22.2 28.1422 22.3222 28.1978 22.4333C28.2728 22.5861 28.6478 23.1167 28.7534 23.1639C28.87 23.2222 29.0089 23.1417 29.0617 23.1028C29.5672 22.7611 30.1728 22.2167 30.47 21.8472C30.5728 21.7222 30.6811 21.775 30.7367 21.9667C31.0145 22.9528 31.7367 23.7583 32.7367 24.0944C34.5672 24.7111 36.4672 23.8167 37.9006 22.2611C38.8117 21.2722 39.1395 20.6361 39.4895 20.2028C40.0811 19.4694 41.2478 17.8278 42.6395 16.775C43.1506 16.3861 43.7534 16.0917 44.0561 16.2861C44.3006 16.4444 44.3784 16.8111 43.9867 17.5222C42.57 20.1111 40.4839 23.1528 40.1006 23.8917C40.0311 24.0194 40.0922 24.1194 40.2256 24.1194C40.9672 24.1167 41.7034 24.1167 42.3756 24.1167C42.4867 24.1111 42.5367 24.0611 42.595 23.9806C43.6839 22.2778 44.7061 20.6556 45.8034 18.9806C45.8645 18.8806 45.92 18.9583 45.9228 19.0028C45.945 19.3917 46.0422 19.925 46.2728 20.2722C46.6867 20.9167 47.2756 21.1944 47.9284 21.2C48.4478 21.2056 48.7089 21.1278 49.27 20.9194C49.7256 20.75 50.0922 20.5278 50.37 20.3278C50.5339 20.2139 50.5617 20.4056 50.5589 20.4333C50.3061 21.7861 50.6172 23.3861 51.9617 24.0528C53.57 24.8444 55.3367 23.7306 56.3534 22.725C56.4534 22.6278 56.5589 22.6389 56.57 22.8472C56.5922 23.2306 56.7645 23.6861 57.0839 24.0056C57.9367 24.8611 59.6534 24.5222 61.3784 23.1861C62.4867 22.3306 63.645 21.1222 64.6922 19.8444C64.7311 19.7944 64.7589 19.7167 64.6839 19.6361C64.5256 19.4694 64.295 19.2778 64.1367 19.1306C64.0645 19.0694 63.9589 19.0861 63.8978 19.1333C62.8256 20.1528 61.8589 21.3167 60.4617 22.2806C59.9922 22.6083 59.2395 22.875 58.9034 22.4194C58.7728 22.2417 58.7867 21.9972 58.9172 21.675C59.3228 20.6583 65.7673 10.8444 66.1006 10.2667ZM57.5839 18.4944C57.5978 18.5694 57.695 18.6417 57.7922 18.6778C57.8256 18.6889 57.845 18.7139 57.8061 18.7944C57.5311 19.3806 57.2811 19.7194 56.9367 20.2306C56.62 20.7028 56.2645 21.0694 55.8339 21.4222C55.1839 21.9611 54.2811 22.5444 53.5339 22.1528C53.2034 21.9806 53.0589 21.5167 53.0645 21.1417C53.0811 20.0861 53.5506 19 54.4172 17.9361C55.4756 16.6333 56.645 15.9583 57.4117 16.3278C58.2061 16.7056 57.9534 17.625 57.5978 18.3472C57.57 18.4028 57.5672 18.45 57.5839 18.4944ZM19.3561 24.0806C16.9534 24.0972 14.8367 22.6111 14.5922 20.0417C14.4561 18.6167 14.8589 17.3472 15.6672 16.3028C16.3811 15.3722 17.5922 14.5972 18.6172 14.4083C18.9506 14.3472 19.3978 14.3861 19.5839 14.6056C19.8756 14.9444 19.7895 15.3139 19.5006 15.4639C18.72 15.8639 17.7784 16.5472 17.3117 17.4778C16.9339 18.2389 16.8589 19.1583 17.4339 20.0306C18.3978 21.4889 21.0895 21.5278 23.5895 19.2028C24.2089 18.6333 24.7617 18.0889 25.3256 17.4417C26.4284 16.1833 26.7922 15.7222 28.2589 13.6917C28.2756 13.6694 28.2811 13.6361 28.2728 13.6222C28.2617 13.5972 28.2395 13.5889 28.1978 13.5861C27.22 13.6139 26.3672 13.9056 25.5395 14.525C25.3006 14.7 24.9589 14.675 24.8061 14.4444C24.6395 14.1861 24.7589 13.8472 25.0339 13.6583C26.3672 12.7306 27.8228 12.5639 29.3089 12.3139C29.3089 12.3139 29.4117 12.3194 29.4978 12.2056C30.1089 11.4222 30.57 10.7167 31.22 9.925C31.8756 9.12222 32.7228 8.38333 33.37 7.83056C34.2728 7.05278 34.8506 6.79167 35.4395 6.47222C35.595 6.39167 35.42 6.29444 35.3728 6.29444C32.0867 5.67778 28.6728 4.87778 25.4089 6.08611C23.1506 6.93056 22.1589 8.72222 22.6367 9.91945C22.9756 10.7694 24.0922 10.9056 25.1395 10.3944C26.0089 9.96944 26.8117 9.28333 27.3811 8.4C27.7006 7.91111 28.3728 8.26389 28.0089 9.11389C27.0534 11.3583 25.2284 13.1389 23.0061 13.2139C21.1145 13.275 19.895 11.8833 19.8978 10.1667C19.9061 6.78056 23.6756 4.55278 27.6339 4.21667C32.4034 3.82222 36.92 5.09167 41.6561 5.66667C45.2839 6.10556 48.7645 6.11667 52.4089 5.27778C52.8395 5.18333 53.1422 5.45833 53.1145 5.89444C53.0784 6.525 52.5923 7.13056 51.3895 7.78611C50.0228 8.53611 48.595 8.76111 47.1006 8.775C43.4922 8.80556 40.1284 7.39722 36.6506 6.64167C36.6561 6.79444 36.695 6.975 36.5672 7.07222C34.6395 8.49444 32.8978 9.93611 31.7311 11.9639C31.6922 12.0111 31.7145 12.0556 31.7811 12.05C32.795 11.9972 33.7061 11.9694 34.6506 11.8944C34.8145 11.8806 34.8228 11.8389 34.8061 11.7194C34.7228 11.0194 34.9256 10.225 35.5422 9.675C36.17 9.11111 36.9589 9.04722 37.4811 9.45278C38.0756 9.91667 38.0228 10.7472 37.6978 11.3722C37.3672 12.0056 36.8228 12.3444 36.2978 12.5083C36.2978 12.5083 36.1895 12.5333 36.2034 12.6333C36.2256 12.7944 36.9395 13.1889 37.0006 13.2944C37.0589 13.3944 37.0284 13.55 36.92 13.6694C36.845 13.7556 36.7256 13.8361 36.5756 13.8333C36.4534 13.8306 36.3784 13.7889 36.2228 13.7028C35.9034 13.5278 35.5034 13.2444 35.2339 12.9083C35.1422 12.7944 35.0978 12.7917 34.87 12.8056C33.8478 12.8639 32.2506 13.0194 31.17 13.1528C30.9089 13.1861 30.87 13.2333 30.8145 13.325C29.0895 16.1667 27.2506 19.2333 25.2311 21.2833C23.07 23.4861 21.2672 24.0667 19.3561 24.0806ZM35.7811 11.45C35.8089 11.5972 35.8645 11.625 35.9311 11.6111C36.2589 11.5444 36.62 11.275 36.8311 10.9639C37.0256 10.6806 37.1172 10.2694 36.9228 10.1056C36.7506 9.95833 36.4728 10 36.2645 10.1833C35.8534 10.5472 35.7284 11.0639 35.7811 11.45ZM40.2506 0C18.0478 0 0.247803 6.65556 0.247803 15C0.247803 23.2944 18.1922 30 40.2506 30C62.3089 30 80.2534 23.2722 80.2534 15C80.2534 6.73056 62.3089 0 40.2506 0ZM40.2506 28.8611C18.9339 28.8611 1.60058 22.675 1.60058 15.1083C1.60058 7.54167 18.9339 1.15 40.2506 1.15C61.5672 1.15 78.9061 7.53889 78.9061 15.1083C78.9061 22.675 61.5672 28.8611 40.2506 28.8611Z" fill="#00095B"/>
</svg>